<svg xmlns="http://www.w3.org/2000/svg" width="1500" height="500" viewBox="0 0 1500 500">
  <defs>
    <radialGradient id="glow" cx="62%" cy="100%" r="80%">
      <stop offset="0%" stop-color="#31c47e" stop-opacity="0.3"/>
      <stop offset="100%" stop-color="#31c47e" stop-opacity="0"/>
    </radialGradient>
    <linearGradient id="veil" x1="0" y1="0" x2="0" y2="1">
      <stop offset="0%" stop-color="#050706" stop-opacity="0.92"/>
      <stop offset="40%" stop-color="#050706" stop-opacity="0.35"/>
      <stop offset="100%" stop-color="#050706" stop-opacity="0.72"/>
    </linearGradient>
    <linearGradient id="left" x1="0" y1="0" x2="1" y2="0">
      <stop offset="0%" stop-color="#050706" stop-opacity="0.95"/>
      <stop offset="34%" stop-color="#050706" stop-opacity="0.35"/>
      <stop offset="100%" stop-color="#050706" stop-opacity="0"/>
    </linearGradient>
  </defs>

  <rect width="1500" height="500" fill="#050706"/>
  <rect width="1500" height="500" fill="url(#glow)"/>
  <g><polyline points="0,210.0 20,213.2 40,216.0 60,218.3 80,220.0 100,221.1 120,221.9 140,222.4 160,222.9 180,223.5 200,224.0 220,224.3 240,224.3 260,223.8 280,222.8 300,221.4 320,220.0 340,218.8 360,218.1 380,217.9 400,218.1 420,218.8 440,219.4 460,219.9 480,219.9 500,219.5 520,218.8 540,218.0 560,217.1 580,216.4 600,215.7 620,215.0 640,214.0 660,212.5 680,210.4 700,207.8 720,204.9 740,201.8 760,199.1 780,196.8 800,195.2 820,194.3 840,193.8 860,193.6 880,193.5 900,193.4 920,193.4 940,193.6 960,194.1 980,195.1 1000,196.7 1020,198.7 1040,200.9 1060,202.9 1080,204.6 1100,205.7 1120,206.2 1140,206.3 1160,206.2 1180,206.2 1200,206.4 1220,207.0 1240,207.9 1260,208.8 1280,209.7 1300,210.5 1320,211.0 1340,211.5 1360,212.1 1380,213.1 1400,214.6 1420,216.6 1440,219.0 1460,221.6 1480,224.0 1500,225.9" fill="none" stroke="#31c47e" stroke-opacity="0.080" stroke-width="1.10"/><polyline points="0,233.4 20,235.0 40,235.9 60,236.3 80,236.4 100,236.4 120,236.5 140,236.6 160,236.6 180,236.3 200,235.6 220,234.3 240,232.7 260,231.1 280,229.6 300,228.6 320,228.2 340,228.4 360,229.0 380,229.7 400,230.1 420,230.1 440,229.6 460,228.6 480,227.3 500,226.1 520,224.9 540,223.8 560,222.7 580,221.4 600,219.7 620,217.5 640,214.7 660,211.5 680,208.3 700,205.4 720,203.2 740,201.7 760,201.1 780,201.1 800,201.4 820,201.9 840,202.4 860,202.9 880,203.6 900,204.5 920,205.9 940,207.8 960,210.1 980,212.6 1000,215.0 1020,216.9 1040,218.2 1060,218.8 1080,218.9 1100,218.7 1120,218.6 1140,218.8 1160,219.4 1180,220.3 1200,221.5 1220,222.6 1240,223.6 1260,224.4 1280,225.1 1300,225.8 1320,226.9 1340,228.4 1360,230.5 1380,233.0 1400,235.6 1420,238.0 1440,239.9 1460,241.0 1480,241.2 1500,240.8" fill="none" stroke="#31c47e" stroke-opacity="0.097" stroke-width="1.16"/><polyline points="0,250.5 20,250.0 40,249.5 60,249.0 80,248.7 100,248.3 120,247.7 140,246.7 160,245.2 180,243.4 200,241.4 220,239.7 240,238.5 260,237.9 280,238.0 300,238.6 320,239.2 340,239.7 360,239.6 380,238.9 400,237.6 420,236.0 440,234.3 460,232.6 480,231.1 500,229.7 520,228.2 540,226.3 560,223.9 580,221.1 600,217.9 620,214.7 640,211.8 660,209.7 680,208.5 700,208.3 720,208.8 740,209.9 760,211.1 780,212.3 800,213.4 820,214.5 840,215.9 860,217.6 880,219.8 900,222.4 920,225.2 940,227.8 960,229.9 980,231.4 1000,232.0 1020,232.1 1040,231.8 1060,231.6 1080,231.6 1100,232.2 1120,233.2 1140,234.5 1160,235.9 1180,237.2 1200,238.2 1220,239.0 1240,239.9 1260,241.0 1280,242.5 1300,244.5 1320,246.9 1340,249.4 1360,251.7 1380,253.4 1400,254.1 1420,253.9 1440,252.9 1460,251.4 1480,249.6 1500,247.7" fill="none" stroke="#31c47e" stroke-opacity="0.113" stroke-width="1.23"/><polyline points="0,260.8 20,259.9 40,259.1 60,258.2 80,256.9 100,255.3 120,253.3 140,251.1 160,249.1 180,247.7 200,247.0 220,247.0 240,247.4 260,248.1 280,248.5 300,248.4 320,247.5 340,246.0 360,244.0 380,241.8 400,239.7 420,237.8 440,236.1 460,234.4 480,232.5 500,230.1 520,227.3 540,224.2 560,221.1 580,218.5 600,216.7 620,215.9 640,216.2 660,217.4 680,219.2 700,221.2 720,223.1 740,224.9 760,226.6 780,228.4 800,230.4 820,232.8 840,235.6 860,238.5 880,241.3 900,243.6 920,245.1 940,245.8 960,245.8 980,245.4 1000,245.0 1020,244.9 1040,245.3 1060,246.4 1080,247.8 1100,249.4 1120,251.0 1140,252.2 1160,253.2 1180,254.0 1200,255.1 1220,256.4 1240,258.3 1260,260.5 1280,262.8 1300,264.8 1320,266.1 1340,266.5 1360,265.7 1380,264.1 1400,261.8 1420,259.1 1440,256.5 1460,254.0 1480,251.7 1500,249.4" fill="none" stroke="#31c47e" stroke-opacity="0.130" stroke-width="1.29"/><polyline points="0,267.7 20,266.3 40,264.5 60,262.3 80,260.0 100,257.9 120,256.2 140,255.4 160,255.2 180,255.6 200,256.3 220,256.7 240,256.5 260,255.5 280,253.7 300,251.4 320,248.8 340,246.3 360,244.0 380,242.1 400,240.3 420,238.4 440,236.2 460,233.6 480,230.8 500,228.0 520,225.8 540,224.4 560,224.1 580,225.1 600,227.0 620,229.6 640,232.4 660,235.2 680,237.7 700,239.9 720,242.0 740,244.2 760,246.8 780,249.6 800,252.6 820,255.5 840,257.8 860,259.4 880,260.0 900,259.9 920,259.3 940,258.6 960,258.3 980,258.7 1000,259.7 1020,261.3 1040,263.0 1060,264.8 1080,266.2 1100,267.3 1120,268.1 1140,269.0 1160,270.1 1180,271.6 1200,273.5 1220,275.4 1240,277.0 1260,277.9 1280,277.8 1300,276.4 1320,274.1 1340,270.9 1360,267.5 1380,264.1 1400,260.9 1420,258.1 1440,255.5 1460,252.8 1480,249.9 1500,246.8" fill="none" stroke="#31c47e" stroke-opacity="0.147" stroke-width="1.35"/><polyline points="0,270.5 20,268.2 40,265.9 60,264.2 80,263.1 100,262.9 120,263.2 140,263.9 160,264.3 180,264.1 200,263.0 220,261.0 240,258.3 260,255.4 280,252.5 300,250.0 320,247.9 340,246.1 360,244.3 380,242.4 400,240.3 420,237.9 440,235.7 460,233.9 480,233.0 500,233.4 520,235.0 540,237.8 560,241.2 580,244.9 600,248.5 620,251.6 640,254.3 660,256.7 680,259.0 700,261.6 720,264.4 740,267.4 760,270.2 780,272.5 800,274.0 820,274.5 840,274.2 860,273.4 880,272.5 900,271.9 920,272.1 940,273.0 960,274.6 980,276.5 1000,278.4 1020,280.0 1040,281.1 1060,281.8 1080,282.5 1100,283.2 1120,284.3 1140,285.7 1160,287.1 1180,288.2 1200,288.6 1220,287.8 1240,285.9 1260,282.8 1280,278.9 1300,274.6 1320,270.5 1340,266.7 1360,263.5 1380,260.6 1400,257.9 1420,255.1 1440,252.2 1460,249.1 1480,246.2 1500,243.8" fill="none" stroke="#31c47e" stroke-opacity="0.163" stroke-width="1.42"/><polyline points="0,271.5 20,270.4 40,270.0 60,270.3 80,271.0 100,271.4 120,271.2 140,270.0 160,267.9 180,265.0 200,261.8 220,258.6 240,255.9 260,253.7 280,252.0 300,250.6 320,249.2 340,247.6 360,245.9 380,244.3 400,243.1 420,242.9 440,244.0 460,246.4 480,249.9 500,254.2 520,258.7 540,263.0 560,266.7 580,269.8 600,272.4 620,274.8 640,277.2 660,279.8 680,282.5 700,285.1 720,287.3 740,288.6 760,289.0 780,288.5 800,287.4 820,286.2 840,285.4 860,285.3 880,286.1 900,287.7 920,289.7 940,291.7 960,293.3 980,294.4 1000,295.0 1020,295.3 1040,295.6 1060,296.1 1080,296.9 1100,297.7 1120,298.2 1140,297.9 1160,296.6 1180,294.0 1200,290.2 1220,285.6 1240,280.6 1260,275.8 1280,271.5 1300,268.0 1320,265.0 1340,262.4 1360,259.9 1380,257.4 1400,254.7 1420,252.2 1440,250.2 1460,249.1 1480,249.0 1500,250.0" fill="none" stroke="#31c47e" stroke-opacity="0.180" stroke-width="1.48"/><polyline points="0,277.1 20,277.7 40,278.2 60,278.0 80,276.9 100,274.7 120,271.7 140,268.2 160,264.9 180,262.0 200,259.9 220,258.4 240,257.5 260,256.7 280,255.8 300,254.9 320,254.1 340,253.7 360,254.2 380,256.0 400,259.1 420,263.4 440,268.5 460,273.8 480,278.7 500,282.9 520,286.3 540,289.0 560,291.2 580,293.3 600,295.5 620,297.9 640,300.2 660,302.0 680,303.2 700,303.3 720,302.6 740,301.2 760,299.7 780,298.6 800,298.3 820,298.9 840,300.4 860,302.4 880,304.4 900,306.1 920,307.1 940,307.5 960,307.4 980,307.1 1000,306.9 1020,306.9 1040,307.0 1060,306.8 1080,306.0 1100,304.0 1120,300.8 1140,296.4 1160,291.1 1180,285.5 1200,280.2 1220,275.5 1240,271.8 1260,268.9 1280,266.6 1300,264.6 1320,262.6 1340,260.6 1360,258.7 1380,257.2 1400,256.6 1420,256.9 1440,258.4 1460,260.8 1480,263.5 1500,266.1" fill="none" stroke="#31c47e" stroke-opacity="0.197" stroke-width="1.55"/><polyline points="0,284.8 20,283.7 40,281.6 60,278.5 80,275.0 100,271.5 120,268.7 140,266.7 160,265.6 180,265.2 200,265.1 220,265.2 240,265.2 260,265.3 280,265.7 300,267.0 320,269.5 340,273.3 360,278.3 380,284.1 400,290.0 420,295.4 440,300.0 460,303.6 480,306.1 500,308.0 520,309.7 540,311.4 560,313.2 580,315.0 600,316.5 620,317.4 640,317.3 660,316.3 680,314.6 700,312.8 720,311.3 740,310.7 760,311.1 780,312.4 800,314.3 820,316.4 840,318.0 860,318.9 880,319.0 900,318.5 920,317.5 940,316.6 960,315.8 980,315.1 1000,314.2 1020,312.6 1040,310.1 1060,306.4 1080,301.4 1100,295.7 1120,289.6 1140,283.9 1160,279.0 1180,275.3 1200,272.6 1220,270.8 1240,269.4 1260,268.2 1280,267.0 1300,265.8 1320,265.0 1340,264.9 1360,265.8 1380,267.8 1400,270.6 1420,273.9 1440,277.0 1460,279.4 1480,280.8 1500,281.3" fill="none" stroke="#31c47e" stroke-opacity="0.213" stroke-width="1.61"/><polyline points="0,285.7 20,282.2 40,278.8 60,276.1 80,274.4 100,273.7 120,274.0 140,274.8 160,275.8 180,276.9 200,277.9 220,279.3 240,281.4 260,284.6 280,289.0 300,294.5 320,300.8 340,307.2 360,313.0 380,317.8 400,321.3 420,323.6 440,325.1 460,326.1 480,327.1 500,328.2 520,329.5 540,330.5 560,330.9 580,330.5 600,329.3 620,327.3 640,325.2 660,323.4 680,322.4 700,322.5 720,323.6 740,325.5 760,327.5 780,329.0 800,329.7 820,329.5 840,328.4 860,326.8 880,325.0 900,323.4 920,321.8 940,320.2 960,318.0 980,315.0 1000,310.8 1020,305.5 1040,299.5 1060,293.1 1080,287.2 1100,282.3 1120,278.7 1140,276.5 1160,275.3 1180,274.8 1200,274.5 1220,274.2 1240,273.9 1260,273.9 1280,274.4 1300,275.9 1320,278.3 1340,281.6 1360,285.3 1380,288.8 1400,291.7 1420,293.5 1440,294.1 1460,293.9 1480,293.2 1500,292.6" fill="none" stroke="#31c47e" stroke-opacity="0.230" stroke-width="1.67"/><polyline points="0,284.5 20,283.2 40,283.1 60,284.1 80,285.9 100,288.0 120,290.1 140,292.2 160,294.5 180,297.3 200,301.1 220,306.0 240,311.9 260,318.5 280,325.1 300,331.1 320,335.9 340,339.2 360,341.1 380,342.0 400,342.2 420,342.4 440,342.7 460,343.2 480,343.6 500,343.7 520,343.0 540,341.4 560,339.2 580,336.8 600,334.6 620,333.3 640,333.1 660,334.0 680,335.6 700,337.5 720,338.9 740,339.4 760,338.8 780,337.2 800,334.9 820,332.3 840,329.7 860,327.3 880,325.0 900,322.3 920,318.8 940,314.4 960,308.9 980,302.7 1000,296.4 1020,290.5 1040,285.8 1060,282.6 1080,280.9 1100,280.5 1120,281.0 1140,281.8 1160,282.6 1180,283.3 1200,284.1 1220,285.3 1240,287.2 1260,290.1 1280,293.7 1300,297.8 1320,301.8 1340,305.0 1360,307.1 1380,307.9 1400,307.7 1420,307.0 1440,306.4 1460,306.4 1480,307.3 1500,309.0" fill="none" stroke="#31c47e" stroke-opacity="0.247" stroke-width="1.74"/><polyline points="0,295.6 20,298.4 40,301.6 60,304.8 80,308.0 100,311.1 120,314.6 140,318.9 160,324.0 180,330.1 200,336.8 220,343.5 240,349.4 260,354.0 280,357.0 300,358.3 320,358.4 340,357.7 360,356.9 380,356.3 400,356.0 420,355.8 440,355.3 460,354.3 480,352.6 500,350.1 520,347.4 540,344.9 560,343.3 580,342.7 600,343.3 620,344.8 640,346.5 660,347.7 680,348.0 700,347.0 720,344.9 740,341.8 760,338.4 780,335.0 800,331.8 820,328.7 840,325.6 860,321.9 880,317.4 900,311.9 920,305.9 940,299.7 960,294.1 980,289.8 1000,287.1 1020,286.2 1040,286.8 1060,288.3 1080,290.3 1100,292.3 1120,294.1 1140,295.7 1160,297.6 1180,300.0 1200,303.2 1220,307.2 1240,311.5 1260,315.7 1280,319.2 1300,321.5 1320,322.5 1340,322.4 1360,321.7 1380,321.0 1400,320.9 1420,321.8 1440,323.7 1460,326.4 1480,329.4 1500,332.4" fill="none" stroke="#31c47e" stroke-opacity="0.263" stroke-width="1.80"/><polyline points="0,321.0 20,325.2 40,329.1 60,333.2 80,337.7 100,343.0 120,349.0 140,355.5 160,362.0 180,367.6 200,371.8 220,374.2 240,374.8 260,374.0 280,372.3 300,370.4 320,368.7 340,367.5 360,366.7 380,365.8 400,364.5 420,362.5 440,359.9 460,357.0 480,354.3 500,352.3 520,351.4 540,351.7 560,352.9 580,354.3 600,355.4 620,355.4 640,354.1 660,351.4 680,347.7 700,343.5 720,339.3 740,335.3 760,331.7 780,328.2 800,324.4 820,320.0 840,314.9 860,309.2 880,303.5 900,298.4 920,294.7 940,292.7 960,292.7 980,294.4 1000,297.2 1020,300.4 1040,303.6 1060,306.4 1080,308.9 1100,311.4 1120,314.3 1140,317.7 1160,321.8 1180,326.3 1200,330.7 1220,334.3 1240,336.8 1260,337.9 1280,337.8 1300,337.0 1320,336.2 1340,335.9 1360,336.8 1380,338.8 1400,341.8 1420,345.3 1440,348.7 1460,351.7 1480,354.3 1500,356.6" fill="none" stroke="#31c47e" stroke-opacity="0.280" stroke-width="1.86"/><polyline points="0,352.6 20,357.3 40,362.4 60,368.1 80,374.2 100,380.2 120,385.3 140,388.9 160,390.5 180,390.3 200,388.4 220,385.6 240,382.6 260,379.9 280,377.8 300,376.2 320,374.9 340,373.3 360,371.3 380,368.6 400,365.5 420,362.6 440,360.3 460,359.1 480,359.0 500,359.9 520,361.2 540,362.0 560,361.8 580,360.2 600,357.0 620,352.7 640,347.8 660,342.8 680,338.3 700,334.2 720,330.5 740,326.9 760,322.8 780,318.2 800,313.1 820,308.1 840,303.8 860,300.8 880,299.8 900,300.8 920,303.6 940,307.6 960,312.1 980,316.5 1000,320.4 1020,323.8 1040,326.8 1060,329.9 1080,333.5 1100,337.6 1120,342.1 1140,346.5 1160,350.2 1180,352.7 1200,353.9 1220,353.7 1240,352.8 1260,351.8 1280,351.4 1300,352.2 1320,354.3 1340,357.5 1360,361.2 1380,365.0 1400,368.4 1420,371.2 1440,373.5 1460,375.7 1480,378.1 1500,381.1" fill="none" stroke="#31c47e" stroke-opacity="0.297" stroke-width="1.93"/><polyline points="0,387.1 20,392.5 40,397.7 60,402.0 80,404.8 100,405.6 120,404.3 140,401.4 160,397.5 180,393.3 200,389.5 220,386.5 240,384.3 260,382.5 280,380.8 300,378.7 320,376.0 340,372.9 360,369.9 380,367.3 400,365.8 420,365.4 440,366.0 460,367.0 480,367.7 500,367.3 520,365.3 540,361.8 560,357.0 580,351.5 600,345.9 620,340.9 640,336.6 660,332.9 680,329.5 700,326.0 720,322.2 740,318.0 760,313.9 780,310.6 800,308.6 820,308.6 840,310.6 860,314.6 880,319.9 900,325.7 920,331.2 940,336.1 960,340.2 980,343.6 1000,346.9 1020,350.4 1040,354.4 1060,358.6 1080,362.9 1100,366.5 1120,369.0 1140,370.2 1160,370.0 1180,368.9 1200,367.7 1220,367.1 1240,367.8 1260,369.8 1280,373.1 1300,377.0 1320,381.1 1340,384.7 1360,387.6 1380,389.8 1400,391.6 1420,393.4 1440,395.5 1460,398.1 1480,400.7 1500,403.0" fill="none" stroke="#31c47e" stroke-opacity="0.313" stroke-width="1.99"/><polyline points="0,417.4 20,419.2 40,419.1 60,416.8 80,412.8 100,407.7 120,402.3 140,397.5 160,393.7 180,390.9 200,388.8 220,387.0 240,385.0 260,382.4 280,379.4 300,376.3 320,373.6 340,371.8 360,371.1 380,371.4 400,372.1 420,372.6 440,372.0 460,369.9 480,366.1 500,360.9 520,354.9 540,349.0 560,343.6 580,339.2 600,335.7 620,332.8 640,330.1 660,327.2 680,324.2 700,321.3 720,319.1 740,318.2 760,319.3 780,322.5 800,327.6 820,334.0 840,341.0 860,347.6 880,353.4 900,358.0 920,361.8 940,365.0 960,368.3 980,371.9 1000,375.8 1020,379.7 1040,383.1 1060,385.5 1080,386.5 1100,386.2 1120,385.0 1140,383.6 1160,382.8 1180,383.2 1200,385.1 1220,388.3 1240,392.4 1260,396.7 1280,400.4 1300,403.3 1320,405.2 1340,406.4 1360,407.4 1380,408.6 1400,410.0 1420,411.5 1440,412.6 1460,412.6 1480,410.8 1500,407.1" fill="none" stroke="#31c47e" stroke-opacity="0.330" stroke-width="2.05"/><polyline points="0,427.4 20,422.3 40,416.1 60,409.7 80,403.9 100,399.3 120,396.0 140,393.7 160,391.9 180,390.1 200,387.8 220,385.0 240,381.9 260,379.1 280,377.1 300,376.1 320,376.1 340,376.6 360,376.9 380,376.2 400,374.0 420,370.0 440,364.7 460,358.5 480,352.2 500,346.7 520,342.4 540,339.3 560,337.1 580,335.4 600,333.7 620,332.1 640,330.5 660,329.6 680,329.9 700,332.1 720,336.4 740,342.5 760,350.0 780,358.0 800,365.5 820,372.0 840,377.1 860,381.0 880,384.1 900,386.9 920,389.9 940,393.2 960,396.7 980,399.7 1000,401.9 1020,402.7 1040,402.3 1060,400.9 1080,399.2 1100,398.1 1120,398.2 1140,399.9 1160,403.0 1180,407.1 1200,411.4 1220,415.1 1240,417.8 1260,419.4 1280,419.9 1300,420.0 1320,420.0 1340,420.1 1360,420.4 1380,420.2 1400,419.1 1420,416.4 1440,411.7 1460,405.0 1480,396.9 1500,388.2" fill="none" stroke="#31c47e" stroke-opacity="0.347" stroke-width="2.12"/><polyline points="0,415.4 20,408.8 40,403.5 60,399.8 80,397.5 100,395.8 120,394.3 140,392.4 160,389.9 180,387.0 200,384.2 220,382.0 240,380.8 260,380.5 280,380.8 300,380.9 320,380.2 340,378.0 360,374.1 380,368.6 400,362.4 420,356.1 440,350.7 460,346.6 480,344.0 500,342.7 520,342.2 540,342.0 560,341.8 580,341.7 600,342.2 620,343.8 640,347.1 660,352.3 680,359.4 700,367.8 720,376.6 740,384.8 760,391.8 780,397.1 800,400.9 820,403.6 840,405.8 860,408.1 880,410.7 900,413.5 920,416.0 940,417.8 960,418.5 980,417.8 1000,416.2 1020,414.3 1040,412.9 1060,412.6 1080,414.0 1100,416.9 1120,420.8 1140,425.0 1160,428.6 1180,431.1 1200,432.1 1220,431.9 1240,430.9 1260,429.7 1280,428.4 1300,427.3 1320,425.9 1340,423.7 1360,420.0 1380,414.5 1400,407.1 1420,398.4 1440,389.0 1460,380.0 1480,372.3 1500,366.2" fill="none" stroke="#31c47e" stroke-opacity="0.363" stroke-width="2.18"/><polyline points="0,402.6 20,400.2 40,398.9 60,397.8 80,396.4 100,394.3 120,391.8 140,389.1 160,386.8 180,385.3 200,384.8 220,384.9 240,385.0 260,384.3 280,382.2 300,378.5 320,373.2 340,367.1 360,360.9 380,355.8 400,352.1 420,350.3 440,350.0 460,350.8 480,352.2 500,353.6 520,355.1 540,357.0 560,359.9 580,364.2 600,370.3 620,378.1 640,387.1 660,396.5 680,405.2 700,412.4 720,417.8 740,421.3 760,423.4 780,424.8 800,426.1 820,427.8 840,429.7 860,431.7 880,433.0 900,433.4 920,432.6 940,430.8 960,428.6 980,426.8 1000,426.2 1020,427.1 1040,429.7 1060,433.3 1080,437.3 1100,440.7 1120,442.8 1140,443.2 1160,442.2 1180,440.1 1200,437.5 1220,434.9 1240,432.3 1260,429.7 1280,426.4 1300,421.9 1320,415.8 1340,407.9 1360,398.8 1380,389.1 1400,380.0 1420,372.2 1440,366.3 1460,362.6 1480,360.5 1500,359.5" fill="none" stroke="#31c47e" stroke-opacity="0.380" stroke-width="2.25"/><polyline points="0,400.8 20,400.1 40,398.6 60,396.5 80,394.0 100,391.7 120,390.1 140,389.3 160,389.3 180,389.4 200,388.8 220,387.0 240,383.5 260,378.6 280,372.8 300,367.1 320,362.3 340,359.3 360,358.4 380,359.3 400,361.5 420,364.5 440,367.6 460,370.7 480,374.1 500,378.0 520,383.2 540,390.0 560,398.4 580,407.8 600,417.4 620,426.3 640,433.5 660,438.6 680,441.6 700,443.0 720,443.4 740,443.6 760,444.1 780,445.2 800,446.4 820,447.3 840,447.3 860,446.3 880,444.3 900,441.9 920,439.7 940,438.6 960,439.1 980,441.2 1000,444.5 1020,448.1 1040,451.1 1060,452.8 1080,452.6 1100,450.7 1120,447.5 1140,443.5 1160,439.5 1180,435.6 1200,431.7 1220,427.5 1240,422.3 1260,415.8 1280,407.7 1300,398.5 1320,388.9 1340,379.9 1360,372.4 1380,367.1 1400,364.1 1420,363.1 1440,363.5 1460,364.4 1480,365.4 1500,366.0" fill="none" stroke="#31c47e" stroke-opacity="0.397" stroke-width="2.31"/><polyline points="0,401.5 20,399.3 40,397.0 60,395.3 80,394.4 100,394.2 120,394.4 140,394.0 160,392.6 180,389.6 200,385.2 220,380.0 240,374.8 260,370.7 280,368.4 300,368.5 320,370.6 340,374.3 360,378.9 380,383.8 400,388.5 420,393.2 440,398.2 460,404.1 480,411.3 500,419.8 520,429.3 540,438.9 560,447.6 580,454.6 600,459.2 620,461.5 640,461.9 660,461.1 680,460.1 700,459.5 720,459.4 740,459.8 760,460.2 780,459.9 800,458.7 820,456.6 840,453.9 860,451.4 880,449.9 900,449.8 920,451.4 940,454.2 960,457.4 980,459.9 1000,461.1 1020,460.2 1040,457.4 1060,453.1 1080,447.8 1100,442.4 1120,437.2 1140,432.3 1160,427.3 1180,421.7 1200,415.0 1220,407.0 1240,398.1 1260,388.8 1280,380.3 1300,373.4 1320,368.8 1340,366.9 1360,367.2 1380,369.0 1400,371.5 1420,374.1 1440,376.2 1460,378.0 1480,379.8 1500,382.2" fill="none" stroke="#31c47e" stroke-opacity="0.413" stroke-width="2.37"/><polyline points="0,401.3 20,400.3 40,400.1 60,400.3 80,400.2 100,399.2 120,396.9 140,393.2 160,388.7 180,384.3 200,381.0 220,379.6 240,380.7 260,384.1 280,389.3 300,395.5 320,402.0 340,408.2 360,414.1 380,420.0 400,426.4 420,433.7 440,442.1 460,451.3 480,460.5 500,468.8 520,475.2 540,479.1 560,480.5 580,479.8 600,477.8 620,475.4 640,473.4 660,472.3 680,471.8 700,471.6 720,471.0 740,469.7 760,467.4 780,464.5 800,461.7 820,459.7 840,459.1 860,460.1 880,462.3 900,465.0 920,467.1 940,467.6 960,466.1 980,462.5 1000,457.1 1020,450.6 1040,443.9 1060,437.6 1080,431.7 1100,426.2 1120,420.3 1140,413.8 1160,406.2 1180,397.9 1200,389.4 1220,381.6 1240,375.6 1260,372.1 1280,371.3 1300,373.0 1320,376.4 1340,380.6 1360,384.8 1380,388.3 1400,391.3 1420,394.0 1440,396.9 1460,400.6 1480,405.2 1500,410.5" fill="none" stroke="#31c47e" stroke-opacity="0.430" stroke-width="2.44"/><polyline points="0,407.3 20,407.6 40,407.3 60,405.7 80,402.9 100,399.3 120,395.8 140,393.4 160,393.0 180,395.1 200,399.8 220,406.4 240,414.1 260,422.1 280,429.6 300,436.5 320,443.1 340,449.6 360,456.8 380,464.8 400,473.3 420,481.8 440,489.3 460,494.8 480,497.9 500,498.2 520,496.2 540,492.9 560,489.1 580,485.8 600,483.5 620,482.1 640,481.3 660,480.5 680,479.0 700,476.7 720,473.7 740,470.6 760,468.2 780,467.0 800,467.4 820,468.9 840,471.0 860,472.5 880,472.6 900,470.4 920,466.0 940,459.6 960,452.1 980,444.4 1000,437.0 1020,430.5 1040,424.5 1060,418.8 1080,412.7 1100,405.9 1120,398.5 1140,391.0 1160,384.4 1180,379.6 1200,377.3 1220,377.8 1240,381.0 1260,386.0 1280,391.9 1300,397.6 1320,402.6 1340,406.7 1360,410.1 1380,413.4 1400,417.3 1420,421.8 1440,427.1 1460,432.4 1480,437.1 1500,440.4" fill="none" stroke="#31c47e" stroke-opacity="0.447" stroke-width="2.50"/><polyline points="0,416.2 20,414.4 40,411.8 60,409.3 80,407.9 100,408.5 120,411.7 140,417.5 160,425.4 180,434.5 200,443.7 220,452.4 240,460.1 260,467.0 280,473.5 300,480.1 320,487.3 340,494.8 360,502.2 380,508.6 400,513.1 420,515.0 440,514.1 460,510.9 480,506.1 500,500.9 520,496.3 540,492.8 560,490.6 580,489.3 600,488.3 620,486.7 640,484.4 660,481.4 680,478.1 700,475.3 720,473.6 740,473.2 760,474.1 780,475.5 800,476.5 820,476.0 840,473.3 860,468.2 880,461.1 900,452.7 920,444.1 940,436.0 960,429.0 980,422.9 1000,417.5 1020,412.2 1040,406.5 1060,400.4 1080,394.3 1100,389.1 1120,385.6 1140,384.7 1160,386.7 1180,391.4 1200,398.0 1220,405.4 1240,412.7 1260,419.0 1280,424.1 1300,428.1 1320,431.7 1340,435.5 1360,439.8 1380,444.8 1400,450.0 1420,454.6 1440,458.1 1460,459.8 1480,459.8 1500,458.7" fill="none" stroke="#31c47e" stroke-opacity="0.463" stroke-width="2.56"/><polyline points="0,424.9 20,424.5 40,426.1 60,430.3 80,437.1 100,446.1 120,456.3 140,466.6 160,476.1 180,484.3 200,491.2 220,497.3 240,503.1 260,509.1 280,515.2 300,521.2 320,526.3 340,529.5 360,530.1 380,528.0 400,523.4 420,517.3 440,510.8 460,504.8 480,500.3 500,497.3 520,495.5 540,494.3 560,492.9 580,490.7 600,487.7 620,484.3 640,481.1 660,478.8 680,477.8 700,478.0 720,478.8 740,479.2 760,478.2 780,475.1 800,469.5 820,461.8 840,452.8 860,443.5 880,434.9 900,427.7 920,421.8 940,417.1 960,412.8 980,408.5 1000,404.0 1020,399.7 1040,396.1 1060,394.2 1080,394.7 1100,398.2 1120,404.3 1140,412.4 1160,421.3 1180,430.0 1200,437.4 1220,443.3 1240,447.8 1260,451.5 1280,455.0 1300,458.9 1320,463.5 1340,468.3 1360,472.8 1380,476.2 1400,478.0 1420,478.1 1440,477.1 1460,475.8 1480,475.3 1500,476.4" fill="none" stroke="#31c47e" stroke-opacity="0.480" stroke-width="2.63"/><polyline points="0,450.6 20,458.2 40,468.1 60,479.1 80,490.1 100,500.1 120,508.5 140,515.2 160,520.5 180,525.2 200,529.6 220,534.2 240,538.5 260,541.9 280,543.6 300,542.9 320,539.5 340,533.7 360,526.3 380,518.5 400,511.4 420,505.8 440,502.2 460,500.0 480,498.7 500,497.4 520,495.5 540,492.7 560,489.3 580,485.8 600,483.1 620,481.4 640,480.9 660,481.1 680,481.0 700,479.6 720,476.1 740,470.2 760,462.1 780,452.7 800,443.1 820,434.4 840,427.2 860,421.8 880,418.0 900,415.0 920,412.4 940,409.8 960,407.4 980,405.6 1000,405.4 1020,407.5 1040,412.4 1060,419.8 1080,429.3 1100,439.5 1120,449.3 1140,457.7 1160,464.2 1180,468.9 1200,472.4 1220,475.5 1240,478.8 1260,482.7 1280,487.0 1300,491.1 1320,494.4 1340,496.2 1360,496.4 1380,495.5 1400,494.1 1420,493.5 1440,494.4 1460,497.5 1480,502.8 1500,509.5" fill="none" stroke="#31c47e" stroke-opacity="0.497" stroke-width="2.69"/><polyline points="0,502.4 20,513.9 40,524.1 60,532.3 80,538.4 100,542.7 120,545.8 140,548.5 160,551.1 180,553.4 200,555.1 220,555.2 240,553.1 260,548.5 280,541.5 300,532.9 320,524.0 340,515.9 360,509.5 380,505.3 400,502.9 420,501.7 440,500.7 460,499.1 480,496.6 500,493.3 520,489.7 540,486.4 560,484.2 580,483.0 600,482.6 620,482.0 640,480.4 660,476.7 680,470.7 700,462.6 720,453.1 740,443.4 760,434.8 780,428.0 800,423.3 820,420.7 840,419.3 860,418.6 880,418.1 900,417.7 920,418.0 940,419.5 960,423.1 980,429.3 1000,437.9 1020,448.4 1040,459.7 1060,470.3 1080,479.4 1100,486.4 1120,491.1 1140,494.2 1160,496.6 1180,499.1 1200,502.1 1220,505.7 1240,509.3 1260,512.3 1280,514.1 1300,514.4 1320,513.4 1340,512.0 1360,511.1 1380,511.8 1400,514.6 1420,519.5 1440,526.0 1460,532.9 1480,539.3 1500,544.0" fill="none" stroke="#31c47e" stroke-opacity="0.513" stroke-width="2.75"/><polyline points="0,555.0 20,560.2 40,563.2 60,564.6 80,565.2 100,565.6 120,565.9 140,565.6 160,564.1 180,560.6 200,554.8 220,546.8 240,537.3 260,527.5 280,518.6 300,511.6 320,507.0 340,504.5 360,503.4 380,502.8 400,501.8 420,499.7 440,496.6 460,492.9 480,489.3 500,486.5 520,484.8 540,483.8 560,482.9 580,481.0 600,477.4 620,471.5 640,463.6 660,454.3 680,444.9 700,436.7 720,430.5 740,426.9 760,425.6 780,426.0 800,427.4 820,429.1 840,431.0 860,433.2 880,436.4 900,441.5 920,448.8 940,458.4 960,469.7 980,481.6 1000,492.9 1020,502.4 1040,509.4 1060,513.9 1080,516.5 1100,518.0 1120,519.4 1140,521.3 1160,524.0 1180,527.0 1200,529.6 1220,531.2 1240,531.5 1260,530.6 1280,529.0 1300,527.9 1320,528.2 1340,530.5 1360,535.0 1380,541.0 1400,547.6 1420,553.4 1440,557.6 1460,559.4 1480,558.9 1500,556.7" fill="none" stroke="#31c47e" stroke-opacity="0.530" stroke-width="2.82"/><polyline points="0,580.9 20,579.3 40,577.4 60,575.5 80,573.2 100,570.1 120,565.3 140,558.5 160,549.7 180,539.6 200,529.1 220,519.7 240,512.3 260,507.4 280,505.0 300,504.3 320,504.2 340,503.8 360,502.2 380,499.4 400,495.8 420,492.0 440,488.8 460,486.5 480,485.0 500,483.8 520,481.9 540,478.5 560,473.0 580,465.6 600,456.9 620,448.1 640,440.5 660,435.2 680,432.8 700,433.1 720,435.4 740,439.0 760,443.0 780,447.1 800,451.3 820,456.2 840,462.5 860,470.7 880,480.9 900,492.6 920,504.9 940,516.4 960,526.0 980,532.8 1000,536.8 1020,538.6 1040,539.0 1060,539.2 1080,540.0 1100,541.6 1120,543.8 1140,545.9 1160,547.4 1180,547.6 1200,546.6 1220,545.0 1240,543.5 1260,543.3 1280,545.1 1300,548.9 1320,554.3 1340,560.2 1360,565.4 1380,568.8 1400,569.7 1420,567.9 1440,564.1 1460,559.0 1480,553.4 1500,547.9" fill="none" stroke="#31c47e" stroke-opacity="0.547" stroke-width="2.88"/><polyline points="0,582.1 20,577.9 40,573.2 60,567.4 80,559.8 100,550.5 120,540.0 140,529.2 160,519.5 180,511.9 200,507.1 220,504.9 240,504.6 260,505.2 280,505.5 300,504.6 320,502.3 340,498.8 360,494.9 380,491.3 400,488.6 420,486.7 440,485.4 460,483.6 480,480.6 500,475.7 520,469.0 540,461.1 560,453.2 580,446.6 600,442.5 620,441.4 640,443.4 660,447.7 680,453.5 700,459.8 720,466.1 740,472.2 760,478.5 780,485.8 800,494.6 820,505.1 840,516.9 860,529.1 880,540.5 900,549.7 920,556.1 940,559.4 960,560.2 980,559.4 1000,558.2 1020,557.6 1040,558.0 1060,559.3 1080,560.9 1100,562.1 1120,562.3 1140,561.3 1160,559.5 1180,557.7 1200,557.0 1220,558.0 1240,561.0 1260,565.6 1280,570.7 1300,575.1 1320,577.7 1340,577.5 1360,574.4 1380,569.0 1400,562.0 1420,554.6 1440,547.2 1460,540.2 1480,533.3 1500,525.8" fill="none" stroke="#31c47e" stroke-opacity="0.563" stroke-width="2.95"/><polyline points="0,566.9 20,558.9 40,549.3 60,538.8 80,528.1 100,518.4 120,510.9 140,506.3 160,504.5 180,504.8 200,506.2 220,507.3 240,507.2 260,505.5 280,502.3 300,498.4 320,494.5 340,491.4 360,489.3 380,487.9 400,486.4 420,483.9 440,479.9 460,474.3 480,467.5 500,460.8 520,455.4 540,452.5 560,452.9 580,456.6 600,462.9 620,470.9 640,479.4 660,487.7 680,495.4 700,503.0 720,511.1 740,520.1 760,530.5 780,542.0 800,553.7 820,564.5 840,573.1 860,578.7 880,581.1 900,580.7 920,578.5 940,575.9 960,573.8 980,572.9 1000,573.3 1020,574.3 1040,575.2 1060,575.3 1080,574.2 1100,572.3 1120,570.2 1140,568.9 1160,569.1 1180,571.2 1200,574.8 1220,579.0 1240,582.5 1260,584.0 1280,582.8 1300,578.4 1320,571.5 1340,562.9 1360,553.6 1380,544.6 1400,536.3 1420,528.4 1440,520.5 1460,511.8 1480,502.0 1500,491.1" fill="none" stroke="#31c47e" stroke-opacity="0.580" stroke-width="3.01"/><polyline points="0,536.5 20,526.1 40,516.9 60,509.8 80,505.6 100,504.3 120,505.4 140,507.6 160,509.7 180,510.4 200,509.4 220,506.6 240,502.8 260,498.8 280,495.5 300,493.2 320,491.8 340,490.7 360,489.0 380,486.0 400,481.6 420,476.3 440,470.9 460,466.9 480,465.5 500,467.4 520,472.8 540,481.0 560,491.0 580,501.5 600,511.6 620,520.8 640,529.4 660,537.8 680,546.7 700,556.5 720,567.2 740,578.0 760,587.8 780,595.5 800,600.1 820,601.3 840,599.6 860,596.0 880,591.8 900,588.2 920,586.0 940,585.4 960,585.8 980,586.4 1000,586.4 1020,585.4 1040,583.3 1060,580.9 1080,578.9 1100,578.3 1120,579.3 1140,581.8 1160,585.0 1180,587.5 1200,588.0 1220,585.7 1240,580.2 1260,571.9 1280,561.8 1300,551.0 1320,540.7 1340,531.2 1360,522.8 1380,514.8 1400,506.6 1420,497.7 1440,488.0 1460,478.1 1480,469.0 1500,462.0" fill="none" stroke="#31c47e" stroke-opacity="0.597" stroke-width="3.07"/><polyline points="0,509.0 20,505.4 40,504.9 60,506.7 80,509.9 100,512.9 120,514.7 140,514.4 160,512.1 180,508.5 200,504.5 220,501.0 240,498.6 260,497.4 280,496.8 300,496.0 320,494.3 340,491.4 360,487.6 380,483.8 400,481.3 420,481.4 440,484.8 460,491.8 480,501.8 500,513.5 520,525.7 540,537.4 560,547.7 580,556.9 600,565.3 620,573.7 640,582.6 660,592.0 680,601.5 700,610.0 720,616.4 740,619.7 760,619.7 780,616.6 800,611.5 820,605.7 840,600.6 860,597.1 880,595.5 900,595.2 920,595.5 940,595.5 960,594.5 980,592.4 1000,589.7 1020,587.1 1040,585.6 1060,585.5 1080,586.8 1100,588.8 1120,590.3 1140,589.9 1160,586.6 1180,580.1 1200,570.6 1220,559.3 1240,547.3 1260,535.8 1280,525.6 1300,516.9 1320,509.3 1340,501.9 1360,494.4 1380,486.3 1400,478.2 1420,471.0 1440,465.7 1460,463.5 1480,464.8 1500,469.6" fill="none" stroke="#31c47e" stroke-opacity="0.613" stroke-width="3.14"/><polyline points="0,509.3 20,513.5 40,517.5 60,520.3 80,520.8 100,519.2 120,515.8 140,511.9 160,508.3 180,506.0 200,505.0 220,505.0 240,505.2 260,504.9 280,503.6 300,501.6 320,499.5 340,498.6 360,500.1 380,505.0 400,513.4 420,524.8 440,538.1 460,551.7 480,564.5 500,575.6 520,585.0 540,593.0 560,600.5 580,608.0 600,615.8 620,623.5 640,630.4 660,635.2 680,637.1 700,635.7 720,631.1 740,624.6 760,617.3 780,610.8 800,606.0 820,603.4 840,602.5 860,602.6 880,602.6 900,601.7 920,599.6 940,596.6 960,593.4 980,591.0 1000,589.8 1020,589.9 1040,590.8 1060,591.1 1080,589.8 1100,585.7 1120,578.3 1140,568.0 1160,555.7 1180,542.9 1200,530.7 1220,520.2 1240,511.6 1260,504.6 1280,498.5 1300,492.7 1320,486.7 1340,480.8 1360,475.6 1380,472.3 1400,472.0 1420,475.1 1440,481.6 1460,490.7 1480,501.1 1500,511.3" fill="none" stroke="#31c47e" stroke-opacity="0.630" stroke-width="3.20"/></g>
  <rect width="1500" height="500" fill="url(#veil)"/>
  <rect width="1500" height="500" fill="url(#left)"/>

  <g font-family="Helvetica Neue, Helvetica, Arial, sans-serif" font-weight="700" font-size="88" letter-spacing="-3">
    <text x="352" y="222" fill="#49c9a0" opacity="0.45" transform="translate(-3,-2)">DeFi in</text>
    <text x="352" y="222" fill="#31c47e">DeFi <tspan fill="#ffffff">in</tspan></text>
    <text x="352" y="318" fill="#49c9a0" opacity="0.45" transform="translate(3,2)">Stealth Mode</text>
    <text x="352" y="318" fill="#31c47e">Stealth <tspan fill="#97a29c">Mode</tspan></text>
  </g>

  <text x="354" y="372" font-family="Helvetica Neue, Helvetica, Arial, sans-serif" font-size="21" fill="#ffffff" fill-opacity="0.42" letter-spacing="0.4">
    Curated confidential vaults, settlement in minutes.
  </text>

  <g transform="translate(1332 58)">
    <g transform="scale(0.07390300230946882)">
<path d="M116.045 282.162C117.356 239.183 111.279 189.66 122.421 148.29C136.12 97.4269 173.474 52.6405 219.129 26.8355C269.019 -1.36296 321.969 -7.06045 377.027 8.43269C380.946 9.81283 385.232 11.2223 389.016 12.8676C391.141 13.6342 394.025 14.7786 396.125 15.405C398.66 16.8764 400.001 17.3466 402.775 18.4151C405.898 20.3126 409.155 21.9267 412.4 23.5989L418.805 27.2268C423.146 29.9711 428.345 33.0761 432.417 36.0776C444.43 45.2224 455.77 54.7003 465.665 66.2036C468.408 69.5272 475.064 78.8306 477.813 81.3092C501.423 117.905 513.639 147.453 515.372 192.479C516.039 209.713 514.692 230.721 515.586 247.324C515.218 255.991 515.2 269.868 515.574 278.537C515.488 282.4 515.353 286.281 515.439 290.144C516.964 291.559 518.543 293.098 520.141 294.414C524.679 298.404 529.081 302.556 533.324 306.862L541.021 314.606L542.638 316.609L547.848 322.141L555.673 331.503C562.488 340.057 568.942 348.89 575.022 357.979C577.521 362.145 580.104 366.652 582.774 370.67C583.539 372.006 587.311 378.755 588.015 379.536C595.057 393.72 599.968 405.002 606.323 419.068C612.734 437.271 616.745 449.873 621.013 468.785C621.808 472.269 622.482 475.992 623.168 479.519C593.587 480.18 561.05 479.91 531.402 479.574C524.158 454.72 512.377 426.947 496.372 406.34C494.865 403.84 492.686 401.169 490.892 398.815C490.457 398.237 490.01 397.666 489.563 397.102C450.963 348.212 401.409 321.489 339.677 314.18C329.17 313.16 314.474 312.736 303.881 313.942C291.571 314.613 260.435 319.779 249.958 325.087C241.655 327.559 234.691 330.691 226.906 334.332C169.898 360.709 127.845 407.753 104.832 465.827C85.4516 515.05 82.8034 578.234 102.863 627.959C103.157 628.688 103.422 629.202 103.668 629.705C104.402 631.921 106.011 636.52 107.279 638.369C107.746 639.508 108.583 641.773 109.2 642.698C111.953 649.262 118.859 662.53 123.255 668.415C125.336 671.562 127.455 674.874 129.584 677.966C131.828 681.169 134.081 684.592 136.675 687.5C140.507 692.154 147.88 701.454 152.228 705.159C158.375 712.108 166.94 719.683 174.363 725.102C176.098 726.62 177.309 727.692 179.187 729.014C180.857 730.312 182.907 732.082 184.785 732.927C210.484 753.17 246.313 765.465 278.059 771.527C279.877 771.759 283.609 772.347 285.286 772.396C303.617 775.476 330.707 775.237 348.99 772.255C352.584 771.967 355.487 771.343 358.989 770.639C361.616 770.4 364.108 769.867 366.692 769.371L369.668 768.49C375.062 767.706 380.536 765.967 385.759 764.387C408.488 757.352 430.053 746.992 449.751 733.643C452.672 731.812 456.811 728.543 459.689 726.4C502.495 692.79 526.73 655.476 542.374 603.565C542.748 600.761 544.113 595.14 544.738 592.158C537.017 592.115 526.577 591.791 519.113 592.366C513.577 591.778 500.854 592.134 494.749 592.14L447.914 592.183L289.467 592.023C289.438 588.956 289.236 586.01 289.045 582.955C289.453 578.834 289.179 568.186 289.179 563.631L289.086 524.982C289.46 523.88 289.47 519.869 289.521 518.455L310.611 518.406L322.085 518.271C368.97 518.945 417.103 518.394 464.048 518.406L518.684 518.412C526.583 518.406 538.725 518.773 546.403 518.32C557.449 518.381 569.903 518.681 580.839 518.283C594.279 518.62 607.823 518.308 621.276 518.394C625.421 518.418 629.995 518.528 634.085 518.216C637.226 519.594 636.92 528.864 637.079 532.36C638.188 552.756 637.245 573.207 634.263 593.407C631.36 610.313 628.421 622.626 623.351 639.036C597.206 719.34 534.867 792.572 459.615 830.981C412.682 854.794 360.52 866.458 307.917 864.897C299.509 864.627 291.121 863.972 282.775 862.938C279.083 862.509 271.654 861.382 268.242 861.26C262.303 860.005 256.215 858.633 250.244 857.623L237.737 854.335L235.95 853.655C233.588 853.153 230.722 852.314 228.34 851.69C219.092 848.763 209.963 845.468 200.975 841.813L192.345 837.955C186.434 835.2 180.587 832.31 174.808 829.285L170.279 826.726C166.264 824.313 162.199 821.98 158.089 819.733C157.389 818.852 147.687 812.68 145.917 811.424C64.7012 753.874 10.6188 670.074 1.03932 569.944C0.320475 558.751 -0.0254815 547.539 0.00145986 536.322C0.49559 532.924 0.616203 525.76 0.786424 522.074C1.63998 512.552 2.47272 503.87 3.95756 494.434C5.65793 483.903 7.8506 473.457 10.5282 463.133C17.825 435.088 29.051 408.216 43.8719 383.315C48.8058 375.16 54.7078 367.693 59.6767 359.753C68.3188 348.577 76.2597 338.418 85.8527 327.973C94.2609 318.82 103.812 310.827 112.128 302.122C118.647 297.178 125.1 291.311 131.907 286.167C153.116 269.851 176.059 255.922 200.319 244.632C205.605 242.35 211.052 240.076 216.266 237.659L226.266 234.071L236.782 230.396L242.344 228.535C261.429 223.21 272.468 221.019 292.046 218.133L312.111 216.775C318.65 216.501 323.873 216.519 330.37 216.669C342.426 217.355 352.241 218.864 363.838 219.961C367.182 220.591 371.835 221.618 375.099 222.047L379.642 222.952C386.114 224.565 392.929 226.147 399.328 227.947C410.367 231.459 421.267 235.399 432 239.761C432.166 227.528 432.19 215.292 432.08 203.059C432.129 190.873 431.112 179.605 427.855 167.823C420.354 139.939 401.924 116.261 376.734 102.153C370.708 98.0649 363.722 95.8563 356.901 93.4077C332.905 86.5272 314.07 86.5622 289.759 91.1146C285.164 92.4354 280.591 93.7059 276.069 95.2673C246.003 107.058 225.433 124.741 211.476 154.645C205.541 167.362 200.566 189.126 201.505 203.232C201.304 212.014 201.255 220.8 201.36 229.584C176.572 241.247 155.472 252.527 133.395 268.954C127.973 272.988 121.036 277.741 116.045 282.162Z" fill="#31c47e"/>
</g>
  </g>
  <text x="1412" y="112" font-family="Helvetica Neue, Helvetica, Arial, sans-serif" font-size="30" font-weight="600" fill="#ffffff" letter-spacing="-0.5">Gizu</text>
</svg>