<svg xmlns="http://www.w3.org/2000/svg" width="2440" height="1440" viewBox="0 0 2440 1440">
  <defs>
    <marker id="tipN" viewBox="0 0 10 10" refX="8" refY="5" markerWidth="5" markerHeight="5" orient="auto">
      <path d="M0,1.5 L8.5,5 L0,8.5 Z" fill="rgba(242,247,244,0.3)"/>
    </marker>
    <marker id="tipP" viewBox="0 0 10 10" refX="8" refY="5" markerWidth="5" markerHeight="5" orient="auto">
      <path d="M0,1.5 L8.5,5 L0,8.5 Z" fill="#31c47e" fill-opacity="0.85"/>
    </marker>
  </defs>
  <rect width="2440" height="1440" fill="#070a09"/>
  <text x="120" y="108" font-family="Helvetica Neue" font-size="62" font-weight="700" fill="#f2f7f4" letter-spacing="-1.8" text-anchor="start">One passkey. The complete Earn cycle.</text>
  <path d="M120,178 H2320" stroke="rgba(255,255,255,0.06)"/>
  <rect x="120" y="216" width="620" height="560" rx="16" fill="rgba(255,255,255,0.014)" stroke="rgba(255,255,255,0.06)"/>
  <text x="148" y="250" font-family="Helvetica Neue" font-size="11" font-weight="600" fill="rgba(242,247,244,0.58)" letter-spacing="1.8" text-anchor="start">MONAD · SOURCE CHAIN</text>
  <rect x="800" y="216" width="700" height="1160" rx="16" fill="rgba(255,255,255,0.014)" stroke="rgba(49,196,126,0.22)"/>
  <text x="828" y="250" font-family="Helvetica Neue" font-size="11" font-weight="600" fill="#31c47e" letter-spacing="1.8" text-anchor="start">CONFIDENTIAL LAYER · FAR PRIVATE LEDGER</text>
  <rect x="1560" y="216" width="760" height="1160" rx="16" fill="rgba(255,255,255,0.014)" stroke="rgba(255,255,255,0.06)"/>
  <text x="1588" y="250" font-family="Helvetica Neue" font-size="11" font-weight="600" fill="rgba(242,247,244,0.58)" letter-spacing="1.8" text-anchor="start">MONAD</text>
  <rect x="120" y="816" width="620" height="560" rx="16" fill="rgba(255,255,255,0.014)" stroke="rgba(255,255,255,0.06)"/>
  <text x="148" y="850" font-family="Helvetica Neue" font-size="11" font-weight="600" fill="rgba(242,247,244,0.58)" letter-spacing="1.8" text-anchor="start">MONAD · PAYOUT</text>
  <rect x="150" y="280" width="560" height="284" rx="12" fill="#0d1211" stroke="rgba(255,255,255,0.1)"/>
  <circle cx="195" cy="325" r="13" fill="#31c47e"/><text x="195" y="330" font-family="Helvetica Neue" font-size="13" font-weight="700" fill="#06170e" letter-spacing="0" text-anchor="middle">1</text>
  <text x="222" y="329" font-family="Helvetica Neue" font-size="20" font-weight="600" fill="#f2f7f4" letter-spacing="-0.3" text-anchor="start">Log in with Mera</text>
  <text x="222" y="353" font-family="Helvetica Neue" font-size="14" font-weight="400" fill="rgba(242,247,244,0.58)" letter-spacing="0" text-anchor="start">One master passkey. Every address below belongs to the same account</text>
  <rect x="387" y="374" width="86" height="40" rx="10" fill="rgba(49,196,126,0.14)" stroke="rgba(49,196,126,0.45)"/>
  <text x="430" y="400" font-family="Helvetica Neue" font-size="16" font-weight="700" fill="#31c47e" letter-spacing="0" text-anchor="middle">M</text>
  <path d="M430,414 V448" stroke="rgba(49,196,126,0.55)" stroke-width="1.5" fill="none"/>
  <path d="M259.3333333333333,448 H600.6666666666666" stroke="rgba(49,196,126,0.55)" stroke-width="1.5" fill="none"/>
  <path d="M259.3333333333333,448 V468" stroke="rgba(49,196,126,0.55)" stroke-width="1.5" fill="none" marker-end="url(#tipP)"/>
  <path d="M429.99999999999994,448 V468" stroke="rgba(49,196,126,0.55)" stroke-width="1.5" fill="none" marker-end="url(#tipP)"/>
  <path d="M600.6666666666666,448 V468" stroke="rgba(49,196,126,0.55)" stroke-width="1.5" fill="none" marker-end="url(#tipP)"/>
  <rect x="182" y="474" width="154.66666666666666" height="56" rx="10" fill="rgba(255,255,255,0.035)" stroke="rgba(255,255,255,0.06)"/>
  <text x="259.3333333333333" y="498" font-family="Helvetica Neue" font-size="15" font-weight="600" fill="#f2f7f4" letter-spacing="0" text-anchor="middle">F</text>
  <text x="259.3333333333333" y="518" font-family="Helvetica Neue" font-size="12" font-weight="400" fill="rgba(242,247,244,0.58)" letter-spacing="0" text-anchor="middle">Funding wallet</text>
  <rect x="352.66666666666663" y="474" width="154.66666666666666" height="56" rx="10" fill="rgba(255,255,255,0.035)" stroke="rgba(255,255,255,0.06)"/>
  <text x="429.99999999999994" y="498" font-family="Helvetica Neue" font-size="15" font-weight="600" fill="#f2f7f4" letter-spacing="0" text-anchor="middle">P1 – P4</text>
  <text x="429.99999999999994" y="518" font-family="Helvetica Neue" font-size="12" font-weight="400" fill="rgba(242,247,244,0.58)" letter-spacing="0" text-anchor="middle">Investment</text>
  <rect x="523.3333333333333" y="474" width="154.66666666666666" height="56" rx="10" fill="rgba(255,255,255,0.035)" stroke="rgba(255,255,255,0.06)"/>
  <text x="600.6666666666666" y="498" font-family="Helvetica Neue" font-size="15" font-weight="600" fill="#f2f7f4" letter-spacing="0" text-anchor="middle">P5 – P7</text>
  <text x="600.6666666666666" y="518" font-family="Helvetica Neue" font-size="12" font-weight="400" fill="rgba(242,247,244,0.58)" letter-spacing="0" text-anchor="middle">Withdrawal</text>
  <rect x="150" y="592" width="270" height="174" rx="12" fill="#0d1211" stroke="rgba(255,255,255,0.1)"/>
  <circle cx="195" cy="637" r="13" fill="#31c47e"/><text x="195" y="642" font-family="Helvetica Neue" font-size="13" font-weight="700" fill="#06170e" letter-spacing="0" text-anchor="middle">2</text>
  <text x="222" y="641" font-family="Helvetica Neue" font-size="20" font-weight="600" fill="#f2f7f4" letter-spacing="-0.3" text-anchor="start">Fund wallet F</text>
  <text x="222" y="665" font-family="Helvetica Neue" font-size="14" font-weight="400" fill="rgba(242,247,244,0.58)" letter-spacing="0" text-anchor="start">USDC on Monad</text>
  <rect x="182" y="686" width="40" height="40" rx="10" fill="rgba(255,255,255,0.045)" stroke="rgba(255,255,255,0.06)"/><g transform="translate(190 694) scale(1)" color="rgba(242,247,244,0.7)" stroke="rgba(242,247,244,0.7)" stroke-width="1.7" fill="none" stroke-linecap="round" stroke-linejoin="round"><circle cx="12" cy="12" r="8"/><path d="M12 8v8M14 9.8c-.5-.6-1.3-.9-2.2-.9-1.3 0-2.3.7-2.3 1.7s.9 1.5 2.3 1.7 2.4.6 2.4 1.7-1 1.7-2.4 1.7c-1 0-1.8-.3-2.3-1"/></g>
  <text x="246" y="711" font-family="Helvetica Neue" font-size="13.5" font-weight="400" fill="rgba(242,247,244,0.58)" letter-spacing="0" text-anchor="start">Public transfer</text>
  <rect x="440" y="592" width="270" height="174" rx="12" fill="#0d1211" stroke="rgba(255,255,255,0.1)"/>
  <text x="472" y="641" font-family="Helvetica Neue" font-size="20" font-weight="600" fill="#f2f7f4" letter-spacing="-0.3" text-anchor="start">Deposit address</text>
  <text x="472" y="665" font-family="Helvetica Neue" font-size="14" font-weight="400" fill="rgba(242,247,244,0.58)" letter-spacing="0" text-anchor="start">0xABCD . . . 1234</text>
  <rect x="472" y="686" width="40" height="40" rx="10" fill="rgba(255,255,255,0.045)" stroke="rgba(255,255,255,0.06)"/><g transform="translate(480 694) scale(1)" color="rgba(242,247,244,0.7)" stroke="rgba(242,247,244,0.7)" stroke-width="1.7" fill="none" stroke-linecap="round" stroke-linejoin="round"><path d="M13 3H7a2 2 0 0 0-2 2v14a2 2 0 0 0 2 2h10a2 2 0 0 0 2-2V9l-6-6Z"/><path d="M13 3v6h6"/></g>
  <text x="536" y="711" font-family="Helvetica Neue" font-size="13.5" font-weight="400" fill="rgba(242,247,244,0.58)" letter-spacing="0" text-anchor="start">Generated</text>
  <path d="M190,564 V592" stroke="rgba(242,247,244,0.3)" stroke-width="1.5" fill="none" marker-end="url(#tipN)"/>
  <path d="M420,652 H440" stroke="rgba(242,247,244,0.3)" stroke-width="1.5" fill="none" marker-end="url(#tipN)"/>
  <rect x="830" y="280" width="640" height="174" rx="12" fill="#0c1712" stroke="rgba(49,196,126,0.3)"/>
  <circle cx="875" cy="325" r="13" fill="#31c47e"/><text x="875" y="330" font-family="Helvetica Neue" font-size="13" font-weight="700" fill="#06170e" letter-spacing="0" text-anchor="middle">3</text>
  <text x="902" y="329" font-family="Helvetica Neue" font-size="20" font-weight="600" fill="#f2f7f4" letter-spacing="-0.3" text-anchor="start">Confidential balance M</text>
  <text x="902" y="353" font-family="Helvetica Neue" font-size="14" font-weight="400" fill="rgba(242,247,244,0.58)" letter-spacing="0" text-anchor="start">The Aurora deposit route credits the FAR ledger</text>
  <rect x="862" y="374" width="40" height="40" rx="10" fill="rgba(49,196,126,0.12)" stroke="rgba(49,196,126,0.22)"/><g transform="translate(870 382) scale(1)" color="#31c47e" stroke="#31c47e" stroke-width="1.7" fill="none" stroke-linecap="round" stroke-linejoin="round"><ellipse cx="12" cy="6.5" rx="7" ry="2.8"/><path d="M5 6.5v11c0 1.6 3.1 2.8 7 2.8s7-1.2 7-2.8v-11"/><path d="M5 12c0 1.6 3.1 2.8 7 2.8s7-1.2 7-2.8"/></g>
  <rect x="914" y="374" width="40" height="40" rx="10" fill="rgba(49,196,126,0.12)" stroke="rgba(49,196,126,0.22)"/><g transform="translate(922 382) scale(1)" color="#31c47e" stroke="#31c47e" stroke-width="1.7" fill="none" stroke-linecap="round" stroke-linejoin="round"><rect x="5" y="10.5" width="14" height="9.5" rx="2"/><path d="M8 10.5V8a4 4 0 0 1 8 0v2.5"/></g>
  <text x="978" y="399" font-family="Helvetica Neue" font-size="13.5" font-weight="400" fill="rgba(242,247,244,0.58)" letter-spacing="0" text-anchor="start">Balances never leave the private ledger</text>
  <rect x="830" y="482" width="640" height="174" rx="12" fill="#0c1712" stroke="rgba(49,196,126,0.3)"/>
  <circle cx="875" cy="527" r="13" fill="#31c47e"/><text x="875" y="532" font-family="Helvetica Neue" font-size="13" font-weight="700" fill="#06170e" letter-spacing="0" text-anchor="middle">4</text>
  <text x="902" y="531" font-family="Helvetica Neue" font-size="20" font-weight="600" fill="#f2f7f4" letter-spacing="-0.3" text-anchor="start">Aurora Confidential Intents</text>
  <text x="902" y="555" font-family="Helvetica Neue" font-size="14" font-weight="400" fill="rgba(242,247,244,0.58)" letter-spacing="0" text-anchor="start">One payout quote per recipient wallet</text>
  <rect x="862" y="576" width="135" height="44" rx="10" fill="rgba(49,196,126,0.07)" stroke="rgba(49,196,126,0.18)"/><text x="929.5" y="604" font-family="Helvetica Neue" font-size="13.5" font-weight="500" fill="#f2f7f4" letter-spacing="0" text-anchor="middle">P1 route</text><rect x="1009" y="576" width="135" height="44" rx="10" fill="rgba(49,196,126,0.07)" stroke="rgba(49,196,126,0.18)"/><text x="1076.5" y="604" font-family="Helvetica Neue" font-size="13.5" font-weight="500" fill="#f2f7f4" letter-spacing="0" text-anchor="middle">P2 route</text><rect x="1156" y="576" width="135" height="44" rx="10" fill="rgba(49,196,126,0.07)" stroke="rgba(49,196,126,0.18)"/><text x="1223.5" y="604" font-family="Helvetica Neue" font-size="13.5" font-weight="500" fill="#f2f7f4" letter-spacing="0" text-anchor="middle">P3 route</text><rect x="1303" y="576" width="135" height="44" rx="10" fill="rgba(49,196,126,0.07)" stroke="rgba(49,196,126,0.18)"/><text x="1370.5" y="604" font-family="Helvetica Neue" font-size="13.5" font-weight="500" fill="#f2f7f4" letter-spacing="0" text-anchor="middle">P4 route</text>
  <rect x="830" y="776" width="640" height="174" rx="12" fill="#0c1712" stroke="rgba(49,196,126,0.3)"/>
  <circle cx="875" cy="821" r="13" fill="#31c47e"/><text x="875" y="826" font-family="Helvetica Neue" font-size="13" font-weight="700" fill="#06170e" letter-spacing="0" text-anchor="middle">7</text>
  <text x="902" y="825" font-family="Helvetica Neue" font-size="20" font-weight="600" fill="#f2f7f4" letter-spacing="-0.3" text-anchor="start">Aurora confidential return routes</text>
  <text x="902" y="849" font-family="Helvetica Neue" font-size="14" font-weight="400" fill="rgba(242,247,244,0.58)" letter-spacing="0" text-anchor="start">One return route per investment wallet</text>
  <rect x="862" y="870" width="135" height="44" rx="10" fill="rgba(49,196,126,0.07)" stroke="rgba(49,196,126,0.18)"/><text x="929.5" y="898" font-family="Helvetica Neue" font-size="13.5" font-weight="500" fill="#f2f7f4" letter-spacing="0" text-anchor="middle">D1 › M</text><rect x="1009" y="870" width="135" height="44" rx="10" fill="rgba(49,196,126,0.07)" stroke="rgba(49,196,126,0.18)"/><text x="1076.5" y="898" font-family="Helvetica Neue" font-size="13.5" font-weight="500" fill="#f2f7f4" letter-spacing="0" text-anchor="middle">D2 › M</text><rect x="1156" y="870" width="135" height="44" rx="10" fill="rgba(49,196,126,0.07)" stroke="rgba(49,196,126,0.18)"/><text x="1223.5" y="898" font-family="Helvetica Neue" font-size="13.5" font-weight="500" fill="#f2f7f4" letter-spacing="0" text-anchor="middle">D3 › M</text><rect x="1303" y="870" width="135" height="44" rx="10" fill="rgba(49,196,126,0.07)" stroke="rgba(49,196,126,0.18)"/><text x="1370.5" y="898" font-family="Helvetica Neue" font-size="13.5" font-weight="500" fill="#f2f7f4" letter-spacing="0" text-anchor="middle">D4 › M</text>
  <rect x="830" y="978" width="640" height="174" rx="12" fill="#0c1712" stroke="rgba(49,196,126,0.3)"/>
  <text x="862" y="1027" font-family="Helvetica Neue" font-size="20" font-weight="600" fill="#f2f7f4" letter-spacing="-0.3" text-anchor="start">Confidential balance M</text>
  <text x="862" y="1051" font-family="Helvetica Neue" font-size="14" font-weight="400" fill="rgba(242,247,244,0.58)" letter-spacing="0" text-anchor="start">Same account, credited by every return route</text>
  <rect x="862" y="1072" width="40" height="40" rx="10" fill="rgba(49,196,126,0.12)" stroke="rgba(49,196,126,0.22)"/><g transform="translate(870 1080) scale(1)" color="#31c47e" stroke="#31c47e" stroke-width="1.7" fill="none" stroke-linecap="round" stroke-linejoin="round"><ellipse cx="12" cy="6.5" rx="7" ry="2.8"/><path d="M5 6.5v11c0 1.6 3.1 2.8 7 2.8s7-1.2 7-2.8v-11"/><path d="M5 12c0 1.6 3.1 2.8 7 2.8s7-1.2 7-2.8"/></g>
  <text x="926" y="1097" font-family="Helvetica Neue" font-size="13.5" font-weight="400" fill="rgba(242,247,244,0.58)" letter-spacing="0" text-anchor="start">FAR · private ledger</text>
  <rect x="830" y="1180" width="640" height="174" rx="12" fill="#0c1712" stroke="rgba(49,196,126,0.3)"/>
  <circle cx="875" cy="1225" r="13" fill="#31c47e"/><text x="875" y="1230" font-family="Helvetica Neue" font-size="13" font-weight="700" fill="#06170e" letter-spacing="0" text-anchor="middle">8</text>
  <text x="902" y="1229" font-family="Helvetica Neue" font-size="20" font-weight="600" fill="#f2f7f4" letter-spacing="-0.3" text-anchor="start">Aurora confidential payout quotes</text>
  <text x="902" y="1253" font-family="Helvetica Neue" font-size="14" font-weight="400" fill="rgba(242,247,244,0.58)" letter-spacing="0" text-anchor="start">One quote per fresh withdrawal wallet</text>
  <rect x="862" y="1274" width="184" height="44" rx="10" fill="rgba(49,196,126,0.07)" stroke="rgba(49,196,126,0.18)"/><text x="954" y="1302" font-family="Helvetica Neue" font-size="13.5" font-weight="500" fill="#f2f7f4" letter-spacing="0" text-anchor="middle">P5 quote</text><rect x="1058" y="1274" width="184" height="44" rx="10" fill="rgba(49,196,126,0.07)" stroke="rgba(49,196,126,0.18)"/><text x="1150" y="1302" font-family="Helvetica Neue" font-size="13.5" font-weight="500" fill="#f2f7f4" letter-spacing="0" text-anchor="middle">P6 quote</text><rect x="1254" y="1274" width="184" height="44" rx="10" fill="rgba(49,196,126,0.07)" stroke="rgba(49,196,126,0.18)"/><text x="1346" y="1302" font-family="Helvetica Neue" font-size="13.5" font-weight="500" fill="#f2f7f4" letter-spacing="0" text-anchor="middle">P7 quote</text>
  <path d="M1150,454 V482" stroke="rgba(49,196,126,0.55)" stroke-width="1.5" fill="none" marker-end="url(#tipP)"/>
  <path d="M1150,950 V978" stroke="rgba(49,196,126,0.55)" stroke-width="1.5" fill="none" marker-end="url(#tipP)"/>
  <path d="M1150,1152 V1180" stroke="rgba(49,196,126,0.55)" stroke-width="1.5" fill="none" marker-end="url(#tipP)"/>
  <path d="M710,652 L758,652 Q770,652 770,640 L770,379 Q770,367 782,367 L830,367" stroke="rgba(49,196,126,0.55)" stroke-width="1.5" fill="none" marker-end="url(#tipP)"/>
  <rect x="1590" y="280" width="160" height="104" rx="12" fill="#0d1211" stroke="rgba(255,255,255,0.1)"/>
  <rect x="1650" y="298" width="40" height="40" rx="10" fill="rgba(255,255,255,0.045)" stroke="rgba(255,255,255,0.06)"/><g transform="translate(1658 306) scale(1)" color="rgba(242,247,244,0.7)" stroke="rgba(242,247,244,0.7)" stroke-width="1.7" fill="none" stroke-linecap="round" stroke-linejoin="round"><rect x="3" y="6" width="18" height="13" rx="3"/><path d="M3 10h18"/><circle cx="17" cy="14.5" r="1.1" fill="currentColor" stroke="none"/></g>
  <text x="1670" y="362" font-family="Helvetica Neue" font-size="15" font-weight="600" fill="#f2f7f4" letter-spacing="0" text-anchor="middle">P1</text>
  <rect x="1770" y="280" width="160" height="104" rx="12" fill="#0d1211" stroke="rgba(255,255,255,0.1)"/>
  <rect x="1830" y="298" width="40" height="40" rx="10" fill="rgba(255,255,255,0.045)" stroke="rgba(255,255,255,0.06)"/><g transform="translate(1838 306) scale(1)" color="rgba(242,247,244,0.7)" stroke="rgba(242,247,244,0.7)" stroke-width="1.7" fill="none" stroke-linecap="round" stroke-linejoin="round"><rect x="3" y="6" width="18" height="13" rx="3"/><path d="M3 10h18"/><circle cx="17" cy="14.5" r="1.1" fill="currentColor" stroke="none"/></g>
  <text x="1850" y="362" font-family="Helvetica Neue" font-size="15" font-weight="600" fill="#f2f7f4" letter-spacing="0" text-anchor="middle">P2</text>
  <rect x="1950" y="280" width="160" height="104" rx="12" fill="#0d1211" stroke="rgba(255,255,255,0.1)"/>
  <rect x="2010" y="298" width="40" height="40" rx="10" fill="rgba(255,255,255,0.045)" stroke="rgba(255,255,255,0.06)"/><g transform="translate(2018 306) scale(1)" color="rgba(242,247,244,0.7)" stroke="rgba(242,247,244,0.7)" stroke-width="1.7" fill="none" stroke-linecap="round" stroke-linejoin="round"><rect x="3" y="6" width="18" height="13" rx="3"/><path d="M3 10h18"/><circle cx="17" cy="14.5" r="1.1" fill="currentColor" stroke="none"/></g>
  <text x="2030" y="362" font-family="Helvetica Neue" font-size="15" font-weight="600" fill="#f2f7f4" letter-spacing="0" text-anchor="middle">P3</text>
  <rect x="2130" y="280" width="160" height="104" rx="12" fill="#0d1211" stroke="rgba(255,255,255,0.1)"/>
  <rect x="2190" y="298" width="40" height="40" rx="10" fill="rgba(255,255,255,0.045)" stroke="rgba(255,255,255,0.06)"/><g transform="translate(2198 306) scale(1)" color="rgba(242,247,244,0.7)" stroke="rgba(242,247,244,0.7)" stroke-width="1.7" fill="none" stroke-linecap="round" stroke-linejoin="round"><rect x="3" y="6" width="18" height="13" rx="3"/><path d="M3 10h18"/><circle cx="17" cy="14.5" r="1.1" fill="currentColor" stroke="none"/></g>
  <text x="2210" y="362" font-family="Helvetica Neue" font-size="15" font-weight="600" fill="#f2f7f4" letter-spacing="0" text-anchor="middle">P4</text>
  <rect x="1590" y="470" width="700" height="174" rx="12" fill="#0d1211" stroke="rgba(255,255,255,0.1)"/>
  <circle cx="1635" cy="515" r="13" fill="#31c47e"/><text x="1635" y="520" font-family="Helvetica Neue" font-size="13" font-weight="700" fill="#06170e" letter-spacing="0" text-anchor="middle">5</text>
  <text x="1662" y="519" font-family="Helvetica Neue" font-size="20" font-weight="600" fill="#f2f7f4" letter-spacing="-0.3" text-anchor="start">Invest in vaults</text>
  <text x="1662" y="543" font-family="Helvetica Neue" font-size="14" font-weight="400" fill="rgba(242,247,244,0.58)" letter-spacing="0" text-anchor="start">Morpho / Aave / compatible Euler application</text>
  <rect x="1622" y="564" width="150" height="44" rx="10" fill="rgba(255,255,255,0.035)" stroke="rgba(255,255,255,0.06)"/><text x="1697" y="592" font-family="Helvetica Neue" font-size="13.5" font-weight="500" fill="#f2f7f4" letter-spacing="0" text-anchor="middle">P1 position</text><rect x="1784" y="564" width="150" height="44" rx="10" fill="rgba(255,255,255,0.035)" stroke="rgba(255,255,255,0.06)"/><text x="1859" y="592" font-family="Helvetica Neue" font-size="13.5" font-weight="500" fill="#f2f7f4" letter-spacing="0" text-anchor="middle">P2 position</text><rect x="1946" y="564" width="150" height="44" rx="10" fill="rgba(255,255,255,0.035)" stroke="rgba(255,255,255,0.06)"/><text x="2021" y="592" font-family="Helvetica Neue" font-size="13.5" font-weight="500" fill="#f2f7f4" letter-spacing="0" text-anchor="middle">P3 position</text><rect x="2108" y="564" width="150" height="44" rx="10" fill="rgba(255,255,255,0.035)" stroke="rgba(255,255,255,0.06)"/><text x="2183" y="592" font-family="Helvetica Neue" font-size="13.5" font-weight="500" fill="#f2f7f4" letter-spacing="0" text-anchor="middle">P4 position</text>
  <rect x="1590" y="708" width="700" height="118" rx="12" fill="#0d1211" stroke="rgba(255,255,255,0.1)"/>
  <circle cx="1635" cy="753" r="13" fill="#31c47e"/><text x="1635" y="758" font-family="Helvetica Neue" font-size="13" font-weight="700" fill="#06170e" letter-spacing="0" text-anchor="middle">6</text>
  <text x="1662" y="757" font-family="Helvetica Neue" font-size="20" font-weight="600" fill="#f2f7f4" letter-spacing="-0.3" text-anchor="start">Partial withdrawal</text>
  <text x="1662" y="781" font-family="Helvetica Neue" font-size="14" font-weight="400" fill="rgba(242,247,244,0.58)" letter-spacing="0" text-anchor="start">Redeem part of each position, the rest stays invested</text>
  <rect x="1590" y="912" width="160" height="104" rx="12" fill="#0d1211" stroke="rgba(255,255,255,0.1)"/>
  <rect x="1650" y="930" width="40" height="40" rx="10" fill="rgba(255,255,255,0.045)" stroke="rgba(255,255,255,0.06)"/><g transform="translate(1658 938) scale(1)" color="rgba(242,247,244,0.7)" stroke="rgba(242,247,244,0.7)" stroke-width="1.7" fill="none" stroke-linecap="round" stroke-linejoin="round"><rect x="3" y="6" width="18" height="13" rx="3"/><path d="M3 10h18"/><circle cx="17" cy="14.5" r="1.1" fill="currentColor" stroke="none"/></g>
  <text x="1670" y="994" font-family="Helvetica Neue" font-size="15" font-weight="600" fill="#f2f7f4" letter-spacing="0" text-anchor="middle">P1</text>
  <rect x="1770" y="912" width="160" height="104" rx="12" fill="#0d1211" stroke="rgba(255,255,255,0.1)"/>
  <rect x="1830" y="930" width="40" height="40" rx="10" fill="rgba(255,255,255,0.045)" stroke="rgba(255,255,255,0.06)"/><g transform="translate(1838 938) scale(1)" color="rgba(242,247,244,0.7)" stroke="rgba(242,247,244,0.7)" stroke-width="1.7" fill="none" stroke-linecap="round" stroke-linejoin="round"><rect x="3" y="6" width="18" height="13" rx="3"/><path d="M3 10h18"/><circle cx="17" cy="14.5" r="1.1" fill="currentColor" stroke="none"/></g>
  <text x="1850" y="994" font-family="Helvetica Neue" font-size="15" font-weight="600" fill="#f2f7f4" letter-spacing="0" text-anchor="middle">P2</text>
  <rect x="1950" y="912" width="160" height="104" rx="12" fill="#0d1211" stroke="rgba(255,255,255,0.1)"/>
  <rect x="2010" y="930" width="40" height="40" rx="10" fill="rgba(255,255,255,0.045)" stroke="rgba(255,255,255,0.06)"/><g transform="translate(2018 938) scale(1)" color="rgba(242,247,244,0.7)" stroke="rgba(242,247,244,0.7)" stroke-width="1.7" fill="none" stroke-linecap="round" stroke-linejoin="round"><rect x="3" y="6" width="18" height="13" rx="3"/><path d="M3 10h18"/><circle cx="17" cy="14.5" r="1.1" fill="currentColor" stroke="none"/></g>
  <text x="2030" y="994" font-family="Helvetica Neue" font-size="15" font-weight="600" fill="#f2f7f4" letter-spacing="0" text-anchor="middle">P3</text>
  <rect x="2130" y="912" width="160" height="104" rx="12" fill="#0d1211" stroke="rgba(255,255,255,0.1)"/>
  <rect x="2190" y="930" width="40" height="40" rx="10" fill="rgba(255,255,255,0.045)" stroke="rgba(255,255,255,0.06)"/><g transform="translate(2198 938) scale(1)" color="rgba(242,247,244,0.7)" stroke="rgba(242,247,244,0.7)" stroke-width="1.7" fill="none" stroke-linecap="round" stroke-linejoin="round"><rect x="3" y="6" width="18" height="13" rx="3"/><path d="M3 10h18"/><circle cx="17" cy="14.5" r="1.1" fill="currentColor" stroke="none"/></g>
  <text x="2210" y="994" font-family="Helvetica Neue" font-size="15" font-weight="600" fill="#f2f7f4" letter-spacing="0" text-anchor="middle">P4</text>
  <rect x="1590" y="1070" width="160" height="104" rx="12" fill="#0d1211" stroke="rgba(255,255,255,0.1)"/>
  <rect x="1650" y="1088" width="40" height="40" rx="10" fill="rgba(255,255,255,0.045)" stroke="rgba(255,255,255,0.06)"/><g transform="translate(1658 1096) scale(1)" color="rgba(242,247,244,0.7)" stroke="rgba(242,247,244,0.7)" stroke-width="1.7" fill="none" stroke-linecap="round" stroke-linejoin="round"><path d="M13 3H7a2 2 0 0 0-2 2v14a2 2 0 0 0 2 2h10a2 2 0 0 0 2-2V9l-6-6Z"/><path d="M13 3v6h6"/></g>
  <text x="1670" y="1152" font-family="Helvetica Neue" font-size="15" font-weight="600" fill="#f2f7f4" letter-spacing="0" text-anchor="middle">Deposit D1</text>
  <rect x="1770" y="1070" width="160" height="104" rx="12" fill="#0d1211" stroke="rgba(255,255,255,0.1)"/>
  <rect x="1830" y="1088" width="40" height="40" rx="10" fill="rgba(255,255,255,0.045)" stroke="rgba(255,255,255,0.06)"/><g transform="translate(1838 1096) scale(1)" color="rgba(242,247,244,0.7)" stroke="rgba(242,247,244,0.7)" stroke-width="1.7" fill="none" stroke-linecap="round" stroke-linejoin="round"><path d="M13 3H7a2 2 0 0 0-2 2v14a2 2 0 0 0 2 2h10a2 2 0 0 0 2-2V9l-6-6Z"/><path d="M13 3v6h6"/></g>
  <text x="1850" y="1152" font-family="Helvetica Neue" font-size="15" font-weight="600" fill="#f2f7f4" letter-spacing="0" text-anchor="middle">Deposit D2</text>
  <rect x="1950" y="1070" width="160" height="104" rx="12" fill="#0d1211" stroke="rgba(255,255,255,0.1)"/>
  <rect x="2010" y="1088" width="40" height="40" rx="10" fill="rgba(255,255,255,0.045)" stroke="rgba(255,255,255,0.06)"/><g transform="translate(2018 1096) scale(1)" color="rgba(242,247,244,0.7)" stroke="rgba(242,247,244,0.7)" stroke-width="1.7" fill="none" stroke-linecap="round" stroke-linejoin="round"><path d="M13 3H7a2 2 0 0 0-2 2v14a2 2 0 0 0 2 2h10a2 2 0 0 0 2-2V9l-6-6Z"/><path d="M13 3v6h6"/></g>
  <text x="2030" y="1152" font-family="Helvetica Neue" font-size="15" font-weight="600" fill="#f2f7f4" letter-spacing="0" text-anchor="middle">Deposit D3</text>
  <rect x="2130" y="1070" width="160" height="104" rx="12" fill="#0d1211" stroke="rgba(255,255,255,0.1)"/>
  <rect x="2190" y="1088" width="40" height="40" rx="10" fill="rgba(255,255,255,0.045)" stroke="rgba(255,255,255,0.06)"/><g transform="translate(2198 1096) scale(1)" color="rgba(242,247,244,0.7)" stroke="rgba(242,247,244,0.7)" stroke-width="1.7" fill="none" stroke-linecap="round" stroke-linejoin="round"><path d="M13 3H7a2 2 0 0 0-2 2v14a2 2 0 0 0 2 2h10a2 2 0 0 0 2-2V9l-6-6Z"/><path d="M13 3v6h6"/></g>
  <text x="2210" y="1152" font-family="Helvetica Neue" font-size="15" font-weight="600" fill="#f2f7f4" letter-spacing="0" text-anchor="middle">Deposit D4</text>
  <path d="M1470,542 L1524,542 Q1536,542 1536,530 L1536,268 Q1536,256 1548,256 L2210,256" stroke="rgba(49,196,126,0.55)" stroke-width="1.5" fill="none"/>
  <path d="M1670,256 V280" stroke="rgba(49,196,126,0.55)" stroke-width="1.5" fill="none" marker-end="url(#tipP)"/>
  <path d="M1850,256 V280" stroke="rgba(49,196,126,0.55)" stroke-width="1.5" fill="none" marker-end="url(#tipP)"/>
  <path d="M2030,256 V280" stroke="rgba(49,196,126,0.55)" stroke-width="1.5" fill="none" marker-end="url(#tipP)"/>
  <path d="M2210,256 V280" stroke="rgba(49,196,126,0.55)" stroke-width="1.5" fill="none" marker-end="url(#tipP)"/>
  <path d="M1670,384 V470" stroke="rgba(242,247,244,0.3)" stroke-width="1.5" fill="none" marker-end="url(#tipN)"/>
  <path d="M1850,384 V470" stroke="rgba(242,247,244,0.3)" stroke-width="1.5" fill="none" marker-end="url(#tipN)"/>
  <path d="M2030,384 V470" stroke="rgba(242,247,244,0.3)" stroke-width="1.5" fill="none" marker-end="url(#tipN)"/>
  <path d="M2210,384 V470" stroke="rgba(242,247,244,0.3)" stroke-width="1.5" fill="none" marker-end="url(#tipN)"/>
  <rect x="1691.9" y="412" width="140.2" height="28" rx="14" fill="#070a09" stroke="rgba(255,255,255,0.1)"/><text x="1762" y="431" font-family="Helvetica Neue" font-size="12" font-weight="400" fill="rgba(242,247,244,0.58)" letter-spacing="0" text-anchor="middle">Approve + deposit</text>
  <rect x="2051.9" y="412" width="140.2" height="28" rx="14" fill="#070a09" stroke="rgba(255,255,255,0.1)"/><text x="2122" y="431" font-family="Helvetica Neue" font-size="12" font-weight="400" fill="rgba(242,247,244,0.58)" letter-spacing="0" text-anchor="middle">Approve + deposit</text>
  <path d="M1670,644 V708" stroke="rgba(242,247,244,0.3)" stroke-width="1.5" fill="none" marker-end="url(#tipN)"/>
  <path d="M1850,644 V708" stroke="rgba(242,247,244,0.3)" stroke-width="1.5" fill="none" marker-end="url(#tipN)"/>
  <path d="M2030,644 V708" stroke="rgba(242,247,244,0.3)" stroke-width="1.5" fill="none" marker-end="url(#tipN)"/>
  <path d="M2210,644 V708" stroke="rgba(242,247,244,0.3)" stroke-width="1.5" fill="none" marker-end="url(#tipN)"/>
  <path d="M1670,826 V912" stroke="rgba(242,247,244,0.3)" stroke-width="1.5" fill="none" marker-end="url(#tipN)"/>
  <rect x="1698.2" y="854" width="67.6" height="28" rx="14" fill="#070a09" stroke="rgba(255,255,255,0.1)"/><text x="1732" y="873" font-family="Helvetica Neue" font-size="12" font-weight="400" fill="rgba(242,247,244,0.58)" letter-spacing="0" text-anchor="middle">Redeem</text>
  <path d="M1670,1016 V1070" stroke="rgba(242,247,244,0.3)" stroke-width="1.5" fill="none" marker-end="url(#tipN)"/>
  <path d="M1850,826 V912" stroke="rgba(242,247,244,0.3)" stroke-width="1.5" fill="none" marker-end="url(#tipN)"/>
  <path d="M1850,1016 V1070" stroke="rgba(242,247,244,0.3)" stroke-width="1.5" fill="none" marker-end="url(#tipN)"/>
  <path d="M2030,826 V912" stroke="rgba(242,247,244,0.3)" stroke-width="1.5" fill="none" marker-end="url(#tipN)"/>
  <rect x="2058.2" y="854" width="67.6" height="28" rx="14" fill="#070a09" stroke="rgba(255,255,255,0.1)"/><text x="2092" y="873" font-family="Helvetica Neue" font-size="12" font-weight="400" fill="rgba(242,247,244,0.58)" letter-spacing="0" text-anchor="middle">Redeem</text>
  <path d="M2030,1016 V1070" stroke="rgba(242,247,244,0.3)" stroke-width="1.5" fill="none" marker-end="url(#tipN)"/>
  <path d="M2210,826 V912" stroke="rgba(242,247,244,0.3)" stroke-width="1.5" fill="none" marker-end="url(#tipN)"/>
  <path d="M2210,1016 V1070" stroke="rgba(242,247,244,0.3)" stroke-width="1.5" fill="none" marker-end="url(#tipN)"/>
  <text x="1940" y="1214" font-family="Helvetica Neue" font-size="11" font-weight="600" fill="rgba(242,247,244,0.34)" letter-spacing="1.8" text-anchor="middle">SAME INVESTMENT WALLETS · SEPARATE DEPOSIT ADDRESSES</text>
  <path d="M1670,1174 L1670,1240 Q1670,1252 1658,1252 L1548,1252 Q1536,1252 1536,1240 L1536,875 Q1536,863 1524,863 L1470,863" stroke="rgba(49,196,126,0.55)" stroke-width="1.5" fill="none" marker-end="url(#tipP)"/>
  <path d="M1850,1174 L1850,1256 Q1850,1268 1838,1268 L1532,1268 Q1520,1268 1520,1256 L1520,875 Q1520,863 1508,863 L1470,863" stroke="rgba(49,196,126,0.55)" stroke-width="1.5" fill="none" marker-end="url(#tipP)"/>
  <path d="M2030,1174 L2030,1272 Q2030,1284 2018,1284 L1516,1284 Q1504,1284 1504,1272 L1504,875 Q1504,863 1492,863 L1470,863" stroke="rgba(49,196,126,0.55)" stroke-width="1.5" fill="none" marker-end="url(#tipP)"/>
  <path d="M2210,1174 L2210,1288 Q2210,1300 2198,1300 L1500,1300 Q1488,1300 1488,1288 L1488,875 Q1488,863 1476,863 L1470,863" stroke="rgba(49,196,126,0.55)" stroke-width="1.5" fill="none" marker-end="url(#tipP)"/>
  <rect x="150" y="880" width="170" height="104" rx="12" fill="#0d1211" stroke="rgba(255,255,255,0.1)"/>
  <rect x="215" y="898" width="40" height="40" rx="10" fill="rgba(255,255,255,0.045)" stroke="rgba(255,255,255,0.06)"/><g transform="translate(223 906) scale(1)" color="rgba(242,247,244,0.7)" stroke="rgba(242,247,244,0.7)" stroke-width="1.7" fill="none" stroke-linecap="round" stroke-linejoin="round"><rect x="3" y="6" width="18" height="13" rx="3"/><path d="M3 10h18"/><circle cx="17" cy="14.5" r="1.1" fill="currentColor" stroke="none"/></g>
  <text x="235" y="962" font-family="Helvetica Neue" font-size="15" font-weight="600" fill="#f2f7f4" letter-spacing="0" text-anchor="middle">P5</text>
  <rect x="340" y="880" width="170" height="104" rx="12" fill="#0d1211" stroke="rgba(255,255,255,0.1)"/>
  <rect x="405" y="898" width="40" height="40" rx="10" fill="rgba(255,255,255,0.045)" stroke="rgba(255,255,255,0.06)"/><g transform="translate(413 906) scale(1)" color="rgba(242,247,244,0.7)" stroke="rgba(242,247,244,0.7)" stroke-width="1.7" fill="none" stroke-linecap="round" stroke-linejoin="round"><rect x="3" y="6" width="18" height="13" rx="3"/><path d="M3 10h18"/><circle cx="17" cy="14.5" r="1.1" fill="currentColor" stroke="none"/></g>
  <text x="425" y="962" font-family="Helvetica Neue" font-size="15" font-weight="600" fill="#f2f7f4" letter-spacing="0" text-anchor="middle">P6</text>
  <rect x="530" y="880" width="170" height="104" rx="12" fill="#0d1211" stroke="rgba(255,255,255,0.1)"/>
  <rect x="595" y="898" width="40" height="40" rx="10" fill="rgba(255,255,255,0.045)" stroke="rgba(255,255,255,0.06)"/><g transform="translate(603 906) scale(1)" color="rgba(242,247,244,0.7)" stroke="rgba(242,247,244,0.7)" stroke-width="1.7" fill="none" stroke-linecap="round" stroke-linejoin="round"><rect x="3" y="6" width="18" height="13" rx="3"/><path d="M3 10h18"/><circle cx="17" cy="14.5" r="1.1" fill="currentColor" stroke="none"/></g>
  <text x="615" y="962" font-family="Helvetica Neue" font-size="15" font-weight="600" fill="#f2f7f4" letter-spacing="0" text-anchor="middle">P7</text>
  <rect x="150" y="1012" width="560" height="174" rx="12" fill="#0d1211" stroke="rgba(255,255,255,0.1)"/>
  <text x="182" y="1061" font-family="Helvetica Neue" font-size="20" font-weight="600" fill="#f2f7f4" letter-spacing="-0.3" text-anchor="start">Fresh withdrawal addresses</text>
  <text x="182" y="1085" font-family="Helvetica Neue" font-size="14" font-weight="400" fill="rgba(242,247,244,0.58)" letter-spacing="0" text-anchor="start">Same account M, no new passkey enrolment</text>
  <rect x="182" y="1106" width="40" height="40" rx="10" fill="rgba(255,255,255,0.045)" stroke="rgba(255,255,255,0.06)"/><g transform="translate(190 1114) scale(1)" color="rgba(242,247,244,0.7)" stroke="rgba(242,247,244,0.7)" stroke-width="1.7" fill="none" stroke-linecap="round" stroke-linejoin="round"><path d="M13.5 5H17a2 2 0 0 1 2 2v10a2 2 0 0 1-2 2h-3.5"/><path d="M9.5 8.5 6 12l3.5 3.5"/><path d="M6 12h7.5"/></g>
  <text x="246" y="1131" font-family="Helvetica Neue" font-size="13.5" font-weight="400" fill="rgba(242,247,244,0.58)" letter-spacing="0" text-anchor="start">One quote per address</text>
  <path d="M830,1267 L782,1267 Q768,1267 768,1253 L768,876 Q768,862 754,862 L235,862" stroke="rgba(49,196,126,0.55)" stroke-width="1.5" fill="none"/>
  <path d="M235,862 V880" stroke="rgba(49,196,126,0.55)" stroke-width="1.5" fill="none" marker-end="url(#tipP)"/>
  <path d="M425,862 V880" stroke="rgba(49,196,126,0.55)" stroke-width="1.5" fill="none" marker-end="url(#tipP)"/>
  <path d="M615,862 V880" stroke="rgba(49,196,126,0.55)" stroke-width="1.5" fill="none" marker-end="url(#tipP)"/>
</svg>